<svg xmlns="http://www.w3.org/2000/svg" width="495" height="355" viewBox="0 0 495 355" fill="none"><path d="M207.294 167.425L207.294 194.44C207.294 203.901 199.624 211.57 190.164 211.57C183.352 211.57 177.186 207.48 173.021 202.091C165.704 192.622 151.11 179.465 126.51 179.465C88.0812 179.465 60.9355 205.931 62.7324 241.001C64.3781 273.121 86.826 297.186 126.51 297.186C166.193 297.186 173.422 283.915 178.949 282.154C180.386 281.696 182.845 279.809 185.697 277.268C199.425 265.038 209.167 249.085 217.134 232.515L222.067 222.254C251.156 161.754 312.344 123.28 379.474 123.28C391.267 123.28 403.078 124.312 414.085 128.545C442.063 139.303 495 169.151 495 241.001C495 321.771 428.101 346.718 404.968 352.93C399.817 354.313 394.528 354.708 389.195 354.708L337.065 354.708C311.576 354.708 290.913 334.045 290.913 308.556L290.913 276.365C290.913 268.655 297.163 262.404 304.874 262.404C310.917 262.404 316.301 266.327 319.53 271.436C326.043 281.741 340.53 297.186 368.863 297.186C384.112 297.186 396.444 292.712 405.99 286.973C419.569 278.81 411.524 262.404 395.68 262.404C388.679 262.404 382.156 258.857 378.351 252.98L376.527 250.162C371.872 242.973 371.92 233.709 376.648 226.568C380.637 220.544 387.43 216.921 394.654 216.921C411.173 216.921 420.454 199.627 406.842 190.268C397.059 183.542 384.374 178.455 368.863 179.465C343.776 181.098 329.25 192.698 321.738 201.49C316.939 207.107 310.226 211.57 302.838 211.57C295.575 211.57 288.981 215.813 285.97 222.423L258.666 282.37C238.668 326.277 194.483 354.094 146.245 353.146L116.091 352.553C98.5799 352.208 81.0262 349.416 65.9315 340.533C37.8945 324.035 -4.40791 288.553 0.372524 226.286C6.45196 147.097 78.248 127.969 98.5285 124.131C102.08 123.459 105.645 123.28 109.26 123.28L163.149 123.28C187.529 123.28 207.294 143.044 207.294 167.425Z" fill="white"></path><ellipse cx="122.511" cy="238.914" rx="24.9127" ry="26.3939" transform="rotate(90 122.511 238.914)" fill="white"></ellipse><path d="M31.7 221.904C31.7 221.904 36.3015 176.625 50.429 155.332C60.3644 140.359 82.6431 125.745 82.6431 125.745C82.6431 125.745 89.3856 108.178 93.8805 110.952C98.3755 113.726 160.556 108.178 163.553 110.952C166.549 113.726 178.536 125.745 178.536 125.745H221.238C221.238 125.745 231.27 121.792 257.198 105.404C273.064 95.3766 281.679 87.566 299.151 83.2138C316.072 78.9992 340.355 75.817 347.847 85.9876C355.339 96.1582 336.61 113.109 325.372 123.28C324.657 123.927 324.021 124.506 323.456 125.022C334.728 123.903 347.347 121.498 356.837 116.499C372.511 108.244 392.797 85.9876 392.797 85.9876V62.8727L369.573 19.4166H338.857V1.8492L374.068 0L405.533 52.7021H418.268V37.9085H468.462L451.981 96.1582C451.981 96.1582 439.618 90.9587 434.001 96.1582C429.814 100.034 428.331 103.118 424.434 107.429C421.315 110.881 418.268 116.499 418.268 116.499C418.268 116.499 410.925 123.211 405.533 125.745C394.049 131.142 385.674 120.765 374.068 125.745C366.627 128.938 361.921 131.263 356.837 138.69C351.045 147.151 347.847 168.277 347.847 168.277C347.847 168.277 322.375 159.031 302.148 161.805C281.921 164.578 249.707 209.884 249.707 209.884L246.71 205.261C246.71 205.261 247.459 166.428 214.496 165.503C181.533 164.578 199.494 195.486 199.494 195.486H197.247C197.247 195.486 145.866 163.3 114.108 160.88C76.6486 158.026 31.7 221.904 31.7 221.904Z" fill="white"></path></svg>