<svg width="33" height="37" viewBox="0 0 33 37" fill="none" xmlns="http://www.w3.org/2000/svg">
<path d="M27.2662 9.71562C24.3638 6.97809 20.5587 5.47052 16.5495 5.47052C16.4702 5.47052 16.3908 5.48134 16.3115 5.48242C16.3104 5.47869 16.3103 5.47425 16.3092 5.47052C15.516 2.65824 12.9561 0.663208 9.93949 0.663208C6.29795 0.663208 3.32944 3.63172 3.32944 7.27326C3.32944 8.24674 3.71402 9.48462 4.51925 11.1191C4.52201 11.1245 4.52514 11.1305 4.5279 11.1359C2.20825 13.9247 0.925781 17.4219 0.925781 21.0943C0.925781 25.7455 2.97141 30.1168 6.53351 33.0826C9.31983 35.427 12.8771 36.718 16.5495 36.718C25.1642 36.718 32.1733 29.7096 32.1733 21.0943C32.1733 16.8087 30.3846 12.6615 27.2662 9.71562ZM9.93949 3.06686C12.1148 3.06686 13.9055 4.68933 14.1219 6.81657C14.1339 6.96079 14.1459 7.11702 14.1459 7.27326C14.1459 7.47325 14.1101 7.70772 14.044 7.96996C13.9292 8.42521 13.7095 8.97577 13.4381 9.56707C13.3962 9.65817 13.366 9.74013 13.3211 9.83352C13.2992 9.87918 13.2707 9.92966 13.2481 9.97569C12.5094 11.486 11.4235 13.2467 10.3792 14.7883C10.2331 15.0038 10.0859 15.2238 9.94261 15.429C9.53568 14.8437 9.03776 14.1064 8.52854 13.3028C8.5247 13.2967 8.52097 13.2914 8.51713 13.2853C8.00383 12.4747 7.47935 11.5966 7.0241 10.7373C7.02037 10.7302 7.01448 10.7248 7.01052 10.7177C5.90135 8.6151 5.73309 7.65676 5.73309 7.27326C5.73309 4.95373 7.61996 3.06686 9.93949 3.06686ZM3.32944 21.0943C3.32944 18.3149 4.18778 15.6483 5.77119 13.4297C5.86662 13.5848 5.96216 13.728 6.05759 13.8833C6.10566 13.9674 6.15373 14.0516 6.21382 14.1357C6.22704 14.1578 6.24099 14.1784 6.25433 14.2005C6.31297 14.2949 6.37042 14.3872 6.42895 14.48C6.57846 14.7215 6.72893 14.9664 6.87483 15.1933C6.87483 15.1933 6.88685 15.1933 6.88685 15.2053C7.06712 15.4817 7.2474 15.7461 7.41565 15.9985C7.58391 16.2509 7.75216 16.4913 7.89638 16.7076C8.0263 16.8875 8.13975 17.0438 8.24623 17.1974C8.26847 17.2287 8.29563 17.2683 8.31714 17.2983V17.3085C8.42362 17.4537 8.5098 17.5686 8.58815 17.6763C8.6164 17.7153 8.64632 17.7574 8.6718 17.7925C8.68202 17.8074 8.69416 17.8223 8.70161 17.8373C8.72312 17.8638 8.73742 17.8837 8.75617 17.908C8.87395 18.0692 8.96048 18.1861 8.97707 18.2083L8.97803 18.2099L8.98308 18.2141C9.20974 18.5138 9.56368 18.6906 9.93949 18.6906C10.1294 18.6906 10.3131 18.6457 10.478 18.5631C10.569 18.5173 10.6355 18.4351 10.7126 18.3675C10.775 18.3129 10.8511 18.277 10.9019 18.2095C11.1949 17.8179 11.8539 16.9197 12.6197 15.7781C12.7954 15.5176 12.9752 15.2485 13.1605 14.9651C13.1976 14.901 13.24 14.8367 13.2786 14.7727C14.0912 13.5032 14.9399 12.0571 15.5705 10.6836C15.5866 10.6488 15.6083 10.6128 15.6241 10.5783C15.6904 10.4175 15.7592 10.2604 15.8228 10.1055C15.9086 9.89998 15.9852 9.69915 16.058 9.49989C16.0729 9.45939 16.0901 9.41588 16.1049 9.37646C16.1073 9.37033 16.1086 9.3648 16.111 9.35867C16.1354 9.28945 16.1597 9.22046 16.1823 9.1522C16.1957 9.1111 16.2123 9.06639 16.225 9.02781C16.2671 8.89801 16.2986 8.7747 16.333 8.64971C16.3454 8.60393 16.3611 8.55621 16.3726 8.51102C16.4212 8.32029 16.4588 8.13569 16.4858 7.95674C16.4901 7.93006 16.4987 7.90062 16.5026 7.87418C16.5178 7.87418 16.5343 7.87418 16.5495 7.87418C19.832 7.87418 22.9453 9.07709 25.367 11.2502C26.1427 14.1707 25.8053 17.0731 24.406 19.258C23.0868 21.3189 20.8956 22.627 18.0683 23.0418C13.7601 23.6779 9.99862 26.2008 7.09813 30.3295C4.69171 27.8757 3.32944 24.5801 3.32944 21.0943ZM16.5495 34.3144C13.8061 34.3144 11.143 33.4623 8.93308 31.8979C11.485 28.1656 14.6672 25.9739 18.4192 25.4198C21.9543 24.9016 24.7241 23.2186 26.4306 20.5544C27.5022 18.8812 28.0763 16.8935 28.1602 14.7924C29.1995 16.7141 29.7696 18.8809 29.7696 21.0943C29.7696 28.3838 23.8391 34.3144 16.5495 34.3144Z" fill="#3A86FF"/>
</svg>
