<svg width="25" height="24" viewBox="0 0 25 24" fill="none" xmlns="http://www.w3.org/2000/svg">
<path d="M12.5493 14.2266C12.78 14.2266 13.0055 14.1582 13.1974 14.03C13.3892 13.9019 13.5387 13.7197 13.627 13.5065C13.7153 13.2934 13.7384 13.0588 13.6934 12.8326C13.6484 12.6063 13.5373 12.3984 13.3741 12.2353C13.211 12.0722 13.0031 11.9611 12.7768 11.9161C12.5506 11.871 12.316 11.8941 12.1029 11.9824C11.8897 12.0707 11.7075 12.2202 11.5794 12.4121C11.4512 12.6039 11.3828 12.8294 11.3828 13.0601C11.3828 13.3695 11.5057 13.6662 11.7244 13.885C11.9432 14.1037 12.2399 14.2266 12.5493 14.2266ZM18.3818 14.2266C18.6125 14.2266 18.838 14.1582 19.0299 14.03C19.2217 13.9019 19.3712 13.7197 19.4595 13.5065C19.5478 13.2934 19.5709 13.0588 19.5259 12.8326C19.4809 12.6063 19.3698 12.3984 19.2066 12.2353C19.0435 12.0722 18.8356 11.9611 18.6094 11.9161C18.3831 11.871 18.1485 11.8941 17.9354 11.9824C17.7222 12.0707 17.54 12.2202 17.4119 12.4121C17.2837 12.6039 17.2153 12.8294 17.2153 13.0601C17.2153 13.3695 17.3382 13.6662 17.5569 13.885C17.7757 14.1037 18.0724 14.2266 18.3818 14.2266ZM12.5493 18.8926C12.78 18.8926 13.0055 18.8242 13.1974 18.696C13.3892 18.5679 13.5387 18.3857 13.627 18.1725C13.7153 17.9594 13.7384 17.7248 13.6934 17.4986C13.6484 17.2723 13.5373 17.0644 13.3741 16.9013C13.211 16.7382 13.0031 16.6271 12.7768 16.5821C12.5506 16.537 12.316 16.5601 12.1029 16.6484C11.8897 16.7367 11.7075 16.8862 11.5794 17.0781C11.4512 17.2699 11.3828 17.4954 11.3828 17.7261C11.3828 18.0355 11.5057 18.3322 11.7244 18.551C11.9432 18.7697 12.2399 18.8926 12.5493 18.8926ZM18.3818 18.8926C18.6125 18.8926 18.838 18.8242 19.0299 18.696C19.2217 18.5679 19.3712 18.3857 19.4595 18.1725C19.5478 17.9594 19.5709 17.7248 19.5259 17.4986C19.4809 17.2723 19.3698 17.0644 19.2066 16.9013C19.0435 16.7382 18.8356 16.6271 18.6094 16.5821C18.3831 16.537 18.1485 16.5601 17.9354 16.6484C17.7222 16.7367 17.54 16.8862 17.4119 17.0781C17.2837 17.2699 17.2153 17.4954 17.2153 17.7261C17.2153 18.0355 17.3382 18.3322 17.5569 18.551C17.7757 18.7697 18.0724 18.8926 18.3818 18.8926ZM6.71678 14.2266C6.94749 14.2266 7.17302 14.1582 7.36485 14.03C7.55668 13.9019 7.70619 13.7197 7.79448 13.5065C7.88277 13.2934 7.90587 13.0588 7.86086 12.8326C7.81585 12.6063 7.70475 12.3984 7.54162 12.2353C7.37848 12.0722 7.17063 11.9611 6.94435 11.9161C6.71807 11.871 6.48353 11.8941 6.27038 11.9824C6.05723 12.0707 5.87504 12.2202 5.74687 12.4121C5.61869 12.6039 5.55028 12.8294 5.55028 13.0601C5.55028 13.3695 5.67318 13.6662 5.89194 13.885C6.1107 14.1037 6.4074 14.2266 6.71678 14.2266ZM20.7148 2.56164H19.5483V1.39514C19.5483 1.08576 19.4254 0.789059 19.2066 0.570298C18.9879 0.351536 18.6912 0.228638 18.3818 0.228638C18.0724 0.228638 17.7757 0.351536 17.5569 0.570298C17.3382 0.789059 17.2153 1.08576 17.2153 1.39514V2.56164H7.88328V1.39514C7.88328 1.08576 7.76038 0.789059 7.54162 0.570298C7.32286 0.351536 7.02615 0.228638 6.71678 0.228638C6.4074 0.228638 6.1107 0.351536 5.89194 0.570298C5.67318 0.789059 5.55028 1.08576 5.55028 1.39514V2.56164H4.38378C3.45565 2.56164 2.56554 2.93033 1.90926 3.58662C1.25297 4.2429 0.884277 5.13301 0.884277 6.06114V20.0591C0.884277 20.9873 1.25297 21.8774 1.90926 22.5337C2.56554 23.1899 3.45565 23.5586 4.38378 23.5586H20.7148C21.6429 23.5586 22.533 23.1899 23.1893 22.5337C23.8456 21.8774 24.2143 20.9873 24.2143 20.0591V6.06114C24.2143 5.13301 23.8456 4.2429 23.1893 3.58662C22.533 2.93033 21.6429 2.56164 20.7148 2.56164ZM21.8813 20.0591C21.8813 20.3685 21.7584 20.6652 21.5396 20.884C21.3209 21.1027 21.0242 21.2256 20.7148 21.2256H4.38378C4.0744 21.2256 3.7777 21.1027 3.55894 20.884C3.34018 20.6652 3.21728 20.3685 3.21728 20.0591V9.56064H21.8813V20.0591ZM21.8813 7.22764H3.21728V6.06114C3.21728 5.75176 3.34018 5.45506 3.55894 5.2363C3.7777 5.01754 4.0744 4.89464 4.38378 4.89464H20.7148C21.0242 4.89464 21.3209 5.01754 21.5396 5.2363C21.7584 5.45506 21.8813 5.75176 21.8813 6.06114V7.22764ZM6.71678 18.8926C6.94749 18.8926 7.17302 18.8242 7.36485 18.696C7.55668 18.5679 7.70619 18.3857 7.79448 18.1725C7.88277 17.9594 7.90587 17.7248 7.86086 17.4986C7.81585 17.2723 7.70475 17.0644 7.54162 16.9013C7.37848 16.7382 7.17063 16.6271 6.94435 16.5821C6.71807 16.537 6.48353 16.5601 6.27038 16.6484C6.05723 16.7367 5.87504 16.8862 5.74687 17.0781C5.61869 17.2699 5.55028 17.4954 5.55028 17.7261C5.55028 18.0355 5.67318 18.3322 5.89194 18.551C6.1107 18.7697 6.4074 18.8926 6.71678 18.8926Z" fill="#3A86FF"/>
</svg>
