<svg width="24" height="24" viewBox="0 0 24 24" fill="none" xmlns="http://www.w3.org/2000/svg">
<path d="M8.08536 11.6508H5.77582C5.46955 11.6508 5.17583 11.7725 4.95927 11.989C4.74271 12.2056 4.62104 12.4993 4.62104 12.8056C4.62104 13.1118 4.74271 13.4056 4.95927 13.6221C5.17583 13.8387 5.46955 13.9603 5.77582 13.9603H8.08536C8.39162 13.9603 8.68534 13.8387 8.9019 13.6221C9.11846 13.4056 9.24013 13.1118 9.24013 12.8056C9.24013 12.4993 9.11846 12.2056 8.9019 11.989C8.68534 11.7725 8.39162 11.6508 8.08536 11.6508ZM6.93059 9.34126H11.5497C11.8559 9.34126 12.1497 9.2196 12.3662 9.00304C12.5828 8.78648 12.7044 8.49276 12.7044 8.18649C12.7044 7.88023 12.5828 7.58651 12.3662 7.36995C12.1497 7.15339 11.8559 7.03172 11.5497 7.03172H6.93059C6.62432 7.03172 6.3306 7.15339 6.11404 7.36995C5.89748 7.58651 5.77582 7.88023 5.77582 8.18649C5.77582 8.49276 5.89748 8.78648 6.11404 9.00304C6.3306 9.2196 6.62432 9.34126 6.93059 9.34126ZM8.08536 16.2699H5.77582C5.46955 16.2699 5.17583 16.3915 4.95927 16.6081C4.74271 16.8247 4.62104 17.1184 4.62104 17.4247C4.62104 17.7309 4.74271 18.0246 4.95927 18.2412C5.17583 18.4578 5.46955 18.5794 5.77582 18.5794H8.08536C8.39162 18.5794 8.68534 18.4578 8.9019 18.2412C9.11846 18.0246 9.24013 17.7309 9.24013 17.4247C9.24013 17.1184 9.11846 16.8247 8.9019 16.6081C8.68534 16.3915 8.39162 16.2699 8.08536 16.2699ZM21.9426 11.6508H18.4783V1.25787C18.4791 1.05439 18.4261 0.854306 18.3247 0.677883C18.2233 0.50146 18.0771 0.354961 17.9009 0.253221C17.7254 0.151868 17.5262 0.0985107 17.3235 0.0985107C17.1208 0.0985107 16.9217 0.151868 16.7461 0.253221L13.2818 2.23943L9.81751 0.253221C9.64196 0.151868 9.44283 0.0985107 9.24013 0.0985107C9.03742 0.0985107 8.83829 0.151868 8.66274 0.253221L5.19843 2.23943L1.73412 0.253221C1.55857 0.151868 1.35944 0.0985107 1.15673 0.0985107C0.954028 0.0985107 0.754895 0.151868 0.579347 0.253221C0.403124 0.354961 0.256914 0.50146 0.155522 0.677883C0.0541289 0.854306 0.00115439 1.05439 0.00196223 1.25787V19.7342C0.00196223 20.653 0.366951 21.5342 1.01664 22.1838C1.66632 22.8335 2.54748 23.1985 3.46627 23.1985H19.6331C20.5519 23.1985 21.433 22.8335 22.0827 22.1838C22.7324 21.5342 23.0974 20.653 23.0974 19.7342V12.8056C23.0974 12.4993 22.9757 12.2056 22.7591 11.989C22.5426 11.7725 22.2489 11.6508 21.9426 11.6508ZM3.46627 20.889C3.16001 20.889 2.86629 20.7673 2.64973 20.5507C2.43317 20.3342 2.3115 20.0405 2.3115 19.7342V3.25562L4.62104 4.57206C4.79927 4.66515 4.99736 4.71377 5.19843 4.71377C5.3995 4.71377 5.59759 4.66515 5.77582 4.57206L9.24013 2.58586L12.7044 4.57206C12.8827 4.66515 13.0808 4.71377 13.2818 4.71377C13.4829 4.71377 13.681 4.66515 13.8592 4.57206L16.1687 3.25562V19.7342C16.1719 20.1281 16.2422 20.5187 16.3766 20.889H3.46627ZM20.7878 19.7342C20.7878 20.0405 20.6662 20.3342 20.4496 20.5507C20.233 20.7673 19.9393 20.889 19.6331 20.889C19.3268 20.889 19.0331 20.7673 18.8165 20.5507C18.6 20.3342 18.4783 20.0405 18.4783 19.7342V13.9603H20.7878V19.7342ZM13.3511 16.4662C13.2867 16.4225 13.2168 16.3875 13.1433 16.3623C13.0745 16.3271 13.0003 16.3037 12.9238 16.293C12.7383 16.2558 12.5465 16.2648 12.3653 16.3192C12.1841 16.3736 12.019 16.4716 11.8846 16.6048C11.6735 16.8261 11.5539 17.1189 11.5497 17.4247C11.5478 17.5748 11.5753 17.7238 11.6305 17.8635C11.6933 18.0038 11.7791 18.1326 11.8846 18.2445C11.9968 18.3465 12.1257 18.4286 12.2656 18.487C12.4039 18.5481 12.5533 18.5797 12.7044 18.5797C12.8556 18.5797 13.005 18.5481 13.1433 18.487C13.2832 18.4286 13.4121 18.3465 13.5243 18.2445C13.6314 18.1366 13.716 18.0087 13.7735 17.868C13.831 17.7273 13.8601 17.5766 13.8592 17.4247C13.855 17.1189 13.7353 16.8261 13.5243 16.6048C13.4695 16.5551 13.4116 16.5088 13.3511 16.4662ZM13.5128 11.9857C13.3779 11.8544 13.213 11.758 13.0325 11.705C12.8519 11.652 12.6611 11.6439 12.4766 11.6815C12.2922 11.719 12.1198 11.8011 11.9743 11.9205C11.8288 12.04 11.7148 12.1932 11.642 12.3668C11.5702 12.5417 11.5424 12.7316 11.5611 12.9198C11.5798 13.108 11.6444 13.2888 11.7494 13.4461C11.8543 13.6035 11.9962 13.7327 12.1628 13.8224C12.3293 13.912 12.5153 13.9594 12.7044 13.9603C13.0107 13.9603 13.3044 13.8387 13.521 13.6221C13.7375 13.4056 13.8592 13.1118 13.8592 12.8056C13.8574 12.6547 13.826 12.5056 13.7668 12.3668C13.7112 12.2226 13.6244 12.0925 13.5128 11.9857Z" fill="#3A86FF"/>
</svg>
