<svg width="26" height="26" viewBox="0 0 26 26" fill="none" xmlns="http://www.w3.org/2000/svg">
<g clip-path="url(#clip0_178_319)">
<path fill-rule="evenodd" clip-rule="evenodd" d="M6.98612 10.0548C6.9861 10.0284 6.98087 10.0023 6.97075 9.97802C6.96064 9.9537 6.94582 9.93162 6.92715 9.91303C6.90848 9.89445 6.88634 9.87973 6.86197 9.86972C6.83761 9.85971 6.81151 9.85461 6.78517 9.8547H4.28507C4.17512 9.8547 4.08647 9.94515 4.08647 10.0548C4.08647 10.1644 4.17517 10.2548 4.28507 10.2548H6.78512C6.89597 10.2547 6.98612 10.1658 6.98612 10.0548ZM6.98612 12.0131C6.9861 11.9867 6.98087 11.9606 6.97075 11.9363C6.96064 11.912 6.94582 11.8899 6.92715 11.8713C6.90848 11.8528 6.88634 11.838 6.86197 11.828C6.83761 11.818 6.81151 11.8129 6.78517 11.813H4.28507C4.17512 11.813 4.08647 11.9035 4.08647 12.0131C4.08647 12.1225 4.17527 12.2131 4.28507 12.2131H6.78512C6.89587 12.213 6.98612 12.124 6.98612 12.0131ZM6.98612 13.9713C6.9861 13.945 6.98087 13.9189 6.97075 13.8946C6.96064 13.8703 6.94582 13.8482 6.92715 13.8296C6.90848 13.8111 6.88634 13.7963 6.86197 13.7863C6.83761 13.7763 6.81151 13.7712 6.78517 13.7713H4.28507C4.17512 13.7713 4.08647 13.8617 4.08647 13.9713C4.08647 14.0809 4.17517 14.1714 4.28507 14.1714H6.78512C6.89597 14.1714 6.98612 14.0824 6.98612 13.9713ZM6.98612 15.9297C6.98612 15.8187 6.89587 15.7296 6.78517 15.7296H4.28507C4.17527 15.7296 4.08647 15.8202 4.08647 15.9297C4.08647 16.0393 4.17512 16.1297 4.28507 16.1297H6.78512C6.81146 16.1298 6.83757 16.1247 6.86193 16.1147C6.8863 16.1047 6.90846 16.0899 6.92713 16.0714C6.9458 16.0528 6.96063 16.0307 6.97075 16.0064C6.98087 15.9821 6.9861 15.956 6.98612 15.9297ZM8.49932 16.1094C8.49932 16.2201 8.58677 16.3094 8.69792 16.3094V17.2563C8.58677 17.2563 8.49932 17.3456 8.49932 17.4564V18.5485L7.77827 19.268H2.69247L2.66542 19.0997C2.50927 18.128 1.73852 17.3584 0.767221 17.2015L0.599121 17.1743V15.2941L0.767171 15.2669C1.87497 15.0877 2.69592 14.1238 2.69592 13.0001C2.69592 11.8763 1.87497 10.9125 0.767221 10.7333L0.599171 10.7061V8.82595L0.767271 8.7988C1.73857 8.64185 2.50932 7.87225 2.66547 6.90055L2.69252 6.7323H7.77832L8.49937 7.4517V8.5439C8.49937 8.65455 8.58692 8.7439 8.69797 8.7439V9.6908C8.58682 9.6908 8.49937 9.78005 8.49937 9.89085V11.0657C8.49937 11.1764 8.58682 11.2657 8.69797 11.2657V12.2126C8.58692 12.2126 8.49937 12.302 8.49937 12.4127V13.5877C8.49937 13.6984 8.58692 13.7877 8.69797 13.7877V14.7347C8.58697 14.7347 8.49937 14.8238 8.49937 14.9345V16.1094H8.49932Z" fill="#DDFFEC"/>
<path fill-rule="evenodd" clip-rule="evenodd" d="M18.5684 10.6692L14.9127 15.7575C14.8756 15.8092 14.8268 15.8513 14.7701 15.8804C14.7135 15.9094 14.6508 15.9244 14.5872 15.9243C14.5034 15.9241 14.4217 15.8978 14.3537 15.849C14.1744 15.72 14.1343 15.4702 14.2617 15.2908L17.9198 10.2024C18.0471 10.0232 18.2971 9.9821 18.4764 10.1111C18.6557 10.2399 18.6982 10.4899 18.5684 10.6692ZM14.4315 11.2055C14.4315 11.4732 14.6485 11.6914 14.9174 11.6914C15.1863 11.6914 15.4032 11.4732 15.4032 11.2055C15.4032 10.9374 15.1862 10.7194 14.9174 10.7194C14.6485 10.7194 14.4315 10.9373 14.4315 11.2055ZM16.2028 11.2055C16.2028 10.4963 15.6273 9.9194 14.9174 9.9194C14.2075 9.9194 13.632 10.4963 13.632 11.2055C13.632 11.9145 14.2075 12.4912 14.9174 12.4912C15.6273 12.4912 16.2028 11.9145 16.2028 11.2055ZM17.8821 15.2426C18.151 15.2426 18.368 15.0247 18.368 14.7565C18.368 14.4886 18.151 14.2707 17.8821 14.2707C17.6132 14.2707 17.3963 14.4886 17.3963 14.7565C17.3962 15.0247 17.6132 15.2426 17.8821 15.2426ZM17.8821 13.4707C17.1722 13.4707 16.5967 14.0476 16.5967 14.7566C16.5967 15.4655 17.1722 16.0427 17.8821 16.0427C18.592 16.0427 19.1675 15.4655 19.1675 14.7566C19.1675 14.0476 18.592 13.4707 17.8821 13.4707ZM7.18606 15.9297C7.18606 16.1507 7.00681 16.3297 6.78511 16.3297H4.28501C4.06566 16.3297 3.88641 16.1507 3.88641 15.9297C3.88641 15.7089 4.06566 15.5297 4.28501 15.5297H6.78506C7.00681 15.5297 7.18606 15.7089 7.18606 15.9297ZM7.18606 13.9714C7.18606 14.1924 7.00681 14.3714 6.78511 14.3714H4.28501C4.06566 14.3714 3.88641 14.1924 3.88641 13.9714C3.88641 13.7504 4.06566 13.5714 4.28501 13.5714H6.78506C7.00681 13.5714 7.18606 13.7504 7.18606 13.9714ZM7.18606 12.0131C7.18606 12.2338 7.00681 12.4131 6.78511 12.4131H4.28501C4.06566 12.4131 3.88641 12.2338 3.88641 12.0131C3.88641 11.7921 4.06566 11.6131 4.28501 11.6131H6.78506C7.00681 11.6131 7.18606 11.7921 7.18606 12.0131ZM7.18606 10.0548C7.18606 10.2758 7.00681 10.4548 6.78511 10.4548H4.28501C4.06566 10.4548 3.88641 10.2757 3.88641 10.0548C3.88641 9.83375 4.06566 9.65475 4.28501 9.65475H6.78506C7.00681 9.65475 7.18606 9.83375 7.18606 10.0548ZM9.09881 14.9344V16.1094C9.09881 16.3304 8.91956 16.5094 8.69786 16.5094C8.47616 16.5094 8.29926 16.3304 8.29926 16.1094V14.9344C8.29926 14.7136 8.47616 14.5346 8.69786 14.5346C8.91956 14.5346 9.09881 14.7136 9.09881 14.9344ZM9.09881 12.4126V13.5877C9.09881 13.8084 8.91956 13.9877 8.69786 13.9877C8.47616 13.9877 8.29926 13.8084 8.29926 13.5877V12.4126C8.29926 12.1919 8.47616 12.0126 8.69786 12.0126C8.91956 12.0126 9.09881 12.1918 9.09881 12.4126ZM9.09881 9.8908V11.0656C9.09881 11.2866 8.91956 11.4656 8.69786 11.4656C8.47616 11.4656 8.29926 11.2866 8.29926 11.0656V9.8908C8.29926 9.6698 8.47616 9.4908 8.69786 9.4908C8.91956 9.4908 9.09881 9.6698 9.09881 9.8908ZM24.7997 15.4643C23.6134 15.2723 22.703 14.2405 22.703 13.0001C22.703 11.7598 23.6134 10.7279 24.7997 10.5359V8.9962C23.7431 8.82545 22.9058 7.98885 22.736 6.93225H9.70026L9.09881 7.5344V8.54385C9.09881 8.7646 8.91956 8.94385 8.69786 8.94385C8.47616 8.94385 8.29926 8.7646 8.29926 8.54385V7.53465L7.69546 6.93225H2.86281C2.69301 7.98885 1.85571 8.82545 0.799062 8.9962V10.5359C1.98541 10.7279 2.89581 11.7597 2.89581 13.0001C2.89581 14.2405 1.98541 15.2723 0.799062 15.4643V17.004C1.85571 17.1747 2.69301 18.0113 2.86281 19.0679H7.69551L8.29931 18.4656V17.4563C8.29931 17.2353 8.47621 17.0563 8.69791 17.0563C8.91961 17.0563 9.09886 17.2354 9.09886 17.4563V18.4656L9.70031 19.0679H22.7361C22.9059 18.0113 23.7432 17.1747 24.7998 17.004V15.4643H24.7997ZM25.1983 11.3041C25.42 11.3041 25.5993 11.1248 25.5993 10.9038V8.62825C25.5993 8.40725 25.42 8.22825 25.1983 8.22825C24.2643 8.22825 23.5025 7.4674 23.5025 6.53195C23.5025 6.3112 23.3233 6.1322 23.1039 6.1322H9.53516C9.42901 6.1322 9.32761 6.1742 9.25216 6.2492L8.69786 6.8032L8.14361 6.2492C8.07051 6.1742 7.96671 6.1322 7.86061 6.1322H2.49486C2.27551 6.1322 2.09626 6.3112 2.09626 6.53195C2.09626 7.46735 1.33446 8.22825 0.400462 8.22825C0.178762 8.22825 -0.000488281 8.40725 -0.000488281 8.62825V10.9038C-0.000488281 11.1248 0.178762 11.3041 0.400462 11.3041C1.33446 11.3041 2.09626 12.0649 2.09626 13.0001C2.09626 13.9355 1.33446 14.6964 0.400462 14.6964C0.178762 14.6964 -0.000488281 14.8754 -0.000488281 15.0961V17.3719C-0.000488281 17.5929 0.178762 17.7719 0.400462 17.7719C1.33446 17.7719 2.09626 18.5328 2.09626 19.468C2.09626 19.689 2.27551 19.868 2.49486 19.868H7.86056C7.96671 19.868 8.07046 19.826 8.14356 19.751L8.69781 19.197L9.25211 19.751C9.32726 19.8259 9.42902 19.8679 9.53511 19.868H23.1039C23.3232 19.868 23.5025 19.689 23.5025 19.468C23.5025 18.5328 24.2643 17.7719 25.1983 17.7719C25.42 17.7719 25.5992 17.5929 25.5992 17.3719V15.0961C25.5992 14.8754 25.42 14.6964 25.1983 14.6964C24.2643 14.6964 23.5025 13.9355 23.5025 13.0001C23.5025 12.065 24.2644 11.3041 25.1983 11.3041Z" fill="#008E40"/>
</g>
<defs>
<clipPath id="clip0_178_319">
<rect width="25.6" height="25.6" fill="white" transform="translate(0 0.199951)"/>
</clipPath>
</defs>
</svg>
