<svg width="21" height="20" viewBox="0 0 21 20" fill="none" xmlns="http://www.w3.org/2000/svg">
<path d="M10.3201 0C4.95194 0 0.600098 4.35184 0.600098 9.72C0.600098 14.2783 3.73849 18.1033 7.97213 19.1538V12.6904H5.96787V9.72H7.97213V8.44007C7.97213 5.13177 9.4694 3.59834 12.7174 3.59834C13.3333 3.59834 14.3959 3.71926 14.8306 3.83979V6.53223C14.6012 6.50812 14.2027 6.49607 13.7077 6.49607C12.114 6.49607 11.4982 7.09988 11.4982 8.66946V9.72H14.6731L14.1276 12.6904H11.4982V19.3688C16.3111 18.7876 20.0405 14.6896 20.0405 9.72C20.0401 4.35184 15.6883 0 10.3201 0Z" fill="white"/>
</svg>
