<svg width="35" height="26" viewBox="0 0 35 26" fill="none" xmlns="http://www.w3.org/2000/svg">
<path d="M11.4352 13.2288C12.9359 13.2288 14.1526 12.0122 14.1526 10.5115C14.1526 9.01068 12.9359 7.79407 11.4352 7.79407C9.93439 7.79407 8.71777 9.01068 8.71777 10.5115C8.71777 12.0122 9.93439 13.2288 11.4352 13.2288Z" stroke="#3A86FF" stroke-width="2" stroke-linecap="round" stroke-linejoin="round"/>
<path d="M11.4353 15.2669C9.94071 15.4028 8.44614 15.8104 7.08745 16.6256C6.4081 17.0332 6.00049 17.8484 6.00049 18.7995V19.2071C6.00049 19.6147 6.27223 20.0223 6.81571 20.1582H16.1907C16.5983 20.1582 17.0059 19.7506 17.0059 19.2071V18.7995C17.0059 17.9843 16.5983 17.1691 15.919 16.6256C14.4244 15.8104 12.9298 15.4028 11.4353 15.2669Z" stroke="#3A86FF" stroke-width="2" stroke-linecap="round" stroke-linejoin="round"/>
<path d="M20.9463 17.305H29.0985" stroke="#3A86FF" stroke-width="2" stroke-linecap="round" stroke-linejoin="round"/>
<path d="M29.0981 13.2289H18.2285" stroke="#3A86FF" stroke-width="2" stroke-linecap="round" stroke-linejoin="round"/>
<path d="M15.5113 3.71802H3.96236C2.8754 3.71802 1.92432 4.6691 1.92432 5.75606V22.0604C1.92432 23.1474 2.8754 24.0985 3.96236 24.0985H31.1363C32.2232 24.0985 33.1743 23.1474 33.1743 22.0604V5.75606C33.1743 4.6691 32.2232 3.71802 31.1363 3.71802H19.5874" stroke="#3A86FF" stroke-width="2" stroke-linecap="round" stroke-linejoin="round"/>
<path d="M17.5493 1.00061C18.6362 1.00061 19.5873 1.9517 19.5873 3.03865V6.43539H15.5112V3.03865C15.5112 1.9517 16.4623 1.00061 17.5493 1.00061Z" stroke="#3A86FF" stroke-width="2" stroke-linecap="round" stroke-linejoin="round"/>
</svg>
