<svg width="20" height="20" viewBox="0 0 20 20" fill="none" xmlns="http://www.w3.org/2000/svg">
<path d="M9.80008 1.75036C12.3971 1.75036 12.7047 1.76175 13.726 1.80731C14.6753 1.84908 15.1878 2.00855 15.5296 2.14144C15.9814 2.31609 16.3079 2.52872 16.6458 2.86664C16.9876 3.20836 17.1964 3.53109 17.371 3.98292C17.5039 4.32464 17.6634 4.84101 17.7052 5.78644C17.7507 6.81159 17.7621 7.11914 17.7621 9.71241C17.7621 12.3095 17.7507 12.617 17.7052 13.6384C17.6634 14.5876 17.5039 15.1002 17.371 15.4419C17.1964 15.8937 16.9838 16.2202 16.6458 16.5582C16.3041 16.8999 15.9814 17.1087 15.5296 17.2834C15.1878 17.4163 14.6715 17.5757 13.726 17.6175C12.7009 17.6631 12.3933 17.6745 9.80008 17.6745C7.20302 17.6745 6.89547 17.6631 5.87411 17.6175C4.92489 17.5757 4.41231 17.4163 4.07059 17.2834C3.61877 17.1087 3.29223 16.8961 2.95431 16.5582C2.61259 16.2165 2.40377 15.8937 2.22911 15.4419C2.09622 15.1002 1.93675 14.5838 1.89498 13.6384C1.84942 12.6132 1.83803 12.3057 1.83803 9.71241C1.83803 7.11534 1.84942 6.8078 1.89498 5.78644C1.93675 4.83722 2.09622 4.32464 2.22911 3.98292C2.40377 3.53109 2.61639 3.20456 2.95431 2.86664C3.29603 2.52492 3.61877 2.31609 4.07059 2.14144C4.41231 2.00855 4.92869 1.84908 5.87411 1.80731C6.89547 1.76175 7.20302 1.75036 9.80008 1.75036ZM9.80008 0C7.16125 0 6.83092 0.0113906 5.79437 0.0569531C4.76162 0.102516 4.05161 0.269578 3.43652 0.508781C2.79484 0.759375 2.25189 1.0897 1.71273 1.63266C1.16978 2.17181 0.839453 2.71477 0.588859 3.35264C0.349656 3.97153 0.182594 4.67775 0.137031 5.7105C0.0914688 6.75084 0.0800781 7.08117 0.0800781 9.72C0.0800781 12.3588 0.0914688 12.6892 0.137031 13.7257C0.182594 14.7585 0.349656 15.4685 0.588859 16.0836C0.839453 16.7252 1.16978 17.2682 1.71273 17.8073C2.25189 18.3465 2.79484 18.6806 3.43272 18.9274C4.05161 19.1666 4.75783 19.3337 5.79058 19.3792C6.82712 19.4248 7.15745 19.4362 9.79628 19.4362C12.4351 19.4362 12.7654 19.4248 13.802 19.3792C14.8347 19.3337 15.5448 19.1666 16.1598 18.9274C16.7977 18.6806 17.3407 18.3465 17.8798 17.8073C18.419 17.2682 18.7531 16.7252 18.9999 16.0874C19.2391 15.4685 19.4062 14.7622 19.4517 13.7295C19.4973 12.693 19.5087 12.3626 19.5087 9.7238C19.5087 7.08497 19.4973 6.75464 19.4517 5.71809C19.4062 4.68534 19.2391 3.97533 18.9999 3.36023C18.7607 2.71477 18.4304 2.17181 17.8874 1.63266C17.3483 1.0935 16.8053 0.759375 16.1674 0.512578C15.5485 0.273375 14.8423 0.106312 13.8096 0.06075C12.7692 0.0113906 12.4389 0 9.80008 0Z" fill="white"/>
<path d="M9.80002 4.72705C7.04349 4.72705 4.80713 6.96341 4.80713 9.71994C4.80713 12.4765 7.04349 14.7128 9.80002 14.7128C12.5566 14.7128 14.7929 12.4765 14.7929 9.71994C14.7929 6.96341 12.5566 4.72705 9.80002 4.72705ZM9.80002 12.9587C8.01169 12.9587 6.56128 11.5083 6.56128 9.71994C6.56128 7.93161 8.01169 6.48121 9.80002 6.48121C11.5883 6.48121 13.0388 7.93161 13.0388 9.71994C13.0388 11.5083 11.5883 12.9587 9.80002 12.9587Z" fill="white"/>
<path d="M16.156 4.52966C16.156 5.17513 15.632 5.6953 14.9903 5.6953C14.3449 5.6953 13.8247 5.17133 13.8247 4.52966C13.8247 3.88419 14.3487 3.36401 14.9903 3.36401C15.632 3.36401 16.156 3.88798 16.156 4.52966Z" fill="white"/>
</svg>
