<svg width="20" height="20" viewBox="0 0 20 20" fill="none" xmlns="http://www.w3.org/2000/svg">
<path d="M18.3211 0H1.75529C0.96174 0 0.320068 0.626484 0.320068 1.40105V18.0352C0.320068 18.8097 0.96174 19.44 1.75529 19.44H18.3211C19.1146 19.44 19.7601 18.8097 19.7601 18.039V1.40105C19.7601 0.626484 19.1146 0 18.3211 0ZM6.08752 16.5658H3.2019V7.2862H6.08752V16.5658ZM4.64471 6.02184C3.71827 6.02184 2.97029 5.27386 2.97029 4.35122C2.97029 3.42858 3.71827 2.68059 4.64471 2.68059C5.56735 2.68059 6.31533 3.42858 6.31533 4.35122C6.31533 5.27006 5.56735 6.02184 4.64471 6.02184ZM16.8858 16.5658H14.004V12.0551C14.004 10.9806 13.985 9.5947 12.5042 9.5947C11.0045 9.5947 10.7767 10.7679 10.7767 11.9791V16.5658H7.89863V7.2862H10.6628V8.55436H10.7007C11.0842 7.82536 12.0258 7.05459 13.4269 7.05459C16.3467 7.05459 16.8858 8.97581 16.8858 11.4742V16.5658Z" fill="white"/>
</svg>
