<svg width="41" height="41" viewBox="0 0 41 41" fill="none" xmlns="http://www.w3.org/2000/svg">
<path fill-rule="evenodd" clip-rule="evenodd" d="M31.7995 29.2633C30.1886 29.2633 28.8828 27.9574 28.8828 26.3466C28.8828 24.7358 30.1886 23.4299 31.7995 23.4299C33.4103 23.4299 34.7161 24.7358 34.7161 26.3466C34.7161 27.9574 33.4103 29.2633 31.7995 29.2633ZM31.7995 31.7633C28.8079 31.7633 26.3828 29.3382 26.3828 26.3466C26.3828 23.355 28.8079 20.9299 31.7995 20.9299C34.7911 20.9299 37.2161 23.355 37.2161 26.3466C37.2161 29.3382 34.7911 31.7633 31.7995 31.7633Z" fill="#3A86FF"/>
<path fill-rule="evenodd" clip-rule="evenodd" d="M25.0626 8.92826C24.9296 8.62551 24.6302 8.42993 24.2995 8.42993H19.7161V10.0966H23.7552L31.0364 26.6816C31.2215 27.103 31.7131 27.2947 32.1345 27.1096C32.5559 26.9246 32.7475 26.433 32.5625 26.0116L25.0626 8.92826ZM9.29948 29.2633C7.68865 29.2633 6.38281 27.9574 6.38281 26.3466C6.38281 24.7358 7.68865 23.4299 9.29948 23.4299C10.9103 23.4299 12.2161 24.7358 12.2161 26.3466C12.2161 27.9574 10.9103 29.2633 9.29948 29.2633ZM9.29948 31.7633C6.30794 31.7633 3.88281 29.3382 3.88281 26.3466C3.88281 23.355 6.30794 20.9299 9.29948 20.9299C12.2911 20.9299 14.7161 23.355 14.7161 26.3466C14.7161 29.3382 12.2911 31.7633 9.29948 31.7633Z" fill="#3A86FF"/>
<path fill-rule="evenodd" clip-rule="evenodd" d="M28.5747 19.0332C28.2175 18.7429 27.6927 18.7972 27.4024 19.1544L22.2358 25.5132H9.29915C8.83891 25.5132 8.46582 25.8863 8.46582 26.3466C8.46582 26.8068 8.83891 27.1799 9.29915 27.1799H22.6325C22.8834 27.1799 23.121 27.0668 23.2792 26.8721L28.6959 20.2054C28.9862 19.8482 28.9318 19.3234 28.5747 19.0332Z" fill="#3A86FF"/>
<path d="M23.8826 20.9299H15.1326C14.4423 20.9299 13.8826 21.4895 13.8826 22.1799C13.8826 22.8702 14.4423 23.4299 15.1326 23.4299H21.3826C22.7634 23.4299 23.8826 22.3106 23.8826 20.9299ZM23.8344 14.2632H20.2866C17.6686 14.2632 15.7477 16.7234 16.3826 19.2632H25.0342C25.6537 19.2632 26.0566 18.6113 25.7796 18.0572L23.9042 14.3064C23.891 14.2799 23.864 14.2632 23.8344 14.2632ZM5.54932 15.9299C5.54932 15.4696 5.92242 15.0965 6.38265 15.0965H10.6301C11.8958 15.0965 13.093 15.6718 13.8836 16.6603L14.8828 17.9093C15.3194 18.4549 14.9309 19.2632 14.2321 19.2632H6.38265C5.92242 19.2632 5.54932 18.8901 5.54932 18.4299V15.9299ZM28.8826 13.8465L33.9382 11.7632L34.716 16.7632L29.6604 15.9299L28.8826 13.8465Z" fill="#3A86FF"/>
<path fill-rule="evenodd" clip-rule="evenodd" d="M19.4041 26.7512L17.3208 23.0012L18.7778 22.1919L20.8611 25.9419L19.4041 26.7512Z" fill="#3A86FF"/>
</svg>
