<svg xmlns="http://www.w3.org/2000/svg" width="24" height="24" fill="none" viewBox="0 0 24 24" id="user">
  <path fill="#C4E6FF" fill-rule="evenodd" d="M3 20C3 16.8289 5.10851 14.1503 8 13.2898V18C8 18.5522 8.44772 19 9 19C11.1785 19 20.9291 19 20.9291 19C20.9758 19.3266 21 19.6604 21 20C21 21.6568 19.6569 23 18 23H6C4.34315 23 3 21.6568 3 20Z" clip-rule="evenodd"></path>
  <path fill="#1E93FF" fill-rule="evenodd" d="M12 3C10.3431 3 9 4.34315 9 6C9 7.65685 10.3431 9 12 9C13.6569 9 15 7.65685 15 6C15 4.34315 13.6569 3 12 3ZM7 6C7 3.23858 9.23858 1 12 1C14.7614 1 17 3.23858 17 6C17 8.76142 14.7614 11 12 11C9.23858 11 7 8.76142 7 6Z" clip-rule="evenodd"></path>
  <path fill="#024493" fill-rule="evenodd" d="M3 20C3 16.134 6.13401 13 10 13H14C17.866 13 21 16.134 21 20C21 21.6569 19.6569 23 18 23H6C4.34315 23 3 21.6569 3 20ZM10 15C7.23858 15 5 17.2386 5 20C5 20.5523 5.44772 21 6 21H18C18.5523 21 19 20.5523 19 20C19 17.2386 16.7614 15 14 15H10Z" clip-rule="evenodd"></path>
</svg>