<svg width="20" height="20" viewBox="0 0 20 20" fill="none" xmlns="http://www.w3.org/2000/svg">
<path d="M0.560059 19.44L1.92653 14.448C1.08332 12.9867 0.640249 11.3303 0.641059 9.63171C0.643489 4.32135 4.96484 0 10.2744 0C12.851 0.00081 15.2697 1.0044 17.0889 2.82528C18.9074 4.64616 19.9085 7.06644 19.9077 9.64062C19.9053 14.9518 15.5839 19.2731 10.2744 19.2731C8.66249 19.2723 7.07408 18.8681 5.66711 18.1003L0.560059 19.44ZM5.90363 16.3563C7.26119 17.1623 8.55719 17.645 10.2711 17.6458C14.684 17.6458 18.2788 14.0543 18.2812 9.639C18.2829 5.21478 14.7051 1.6281 10.2776 1.62648C5.86151 1.62648 2.26916 5.21802 2.26754 9.63252C2.26673 11.4348 2.79485 12.7842 3.6818 14.1961L2.87261 17.1509L5.90363 16.3563ZM15.1271 11.9305C15.0672 11.83 14.9068 11.7701 14.6654 11.6494C14.4248 11.5287 13.2414 10.9463 13.0203 10.8661C12.8 10.786 12.6396 10.7455 12.4784 10.9868C12.318 11.2274 11.8563 11.7701 11.7162 11.9305C11.5761 12.0909 11.4351 12.1111 11.1945 11.9904C10.954 11.8697 10.178 11.6162 9.25865 10.7957C8.54342 10.1574 8.05985 9.36927 7.91972 9.12789C7.77959 8.88732 7.90514 8.75691 8.02502 8.63703C8.13356 8.5293 8.26559 8.35596 8.38628 8.21502C8.50859 8.0757 8.54828 7.97526 8.62928 7.81407C8.70947 7.65369 8.66978 7.51275 8.60903 7.39206C8.54828 7.27218 8.06714 6.08715 7.86707 5.6052C7.67105 5.13621 7.4726 5.19939 7.32518 5.1921L6.86348 5.184C6.7031 5.184 6.44228 5.24394 6.22196 5.48532C6.00164 5.7267 5.37956 6.30828 5.37956 7.49331C5.37956 8.67834 6.24221 9.82287 6.36209 9.98325C6.48278 10.1436 8.05904 12.5752 10.4736 13.6177C11.0479 13.8656 11.4967 14.0138 11.8458 14.1248C12.4225 14.3078 12.9474 14.2819 13.3621 14.2204C13.8246 14.1515 14.7861 13.638 14.987 13.0758C15.1878 12.5129 15.1878 12.0309 15.1271 11.9305Z" fill="white"/>
</svg>
