<svg width="171" height="27" viewBox="0 0 171 27" fill="none" xmlns="http://www.w3.org/2000/svg">
<path d="M18.1763 26.4252L16.6852 21.9522H6.7806L5.28957 26.4252H0L8.69762 1.57486H14.7682L23.5013 26.4252H18.1763ZM8.34262 17.3726H15.1587L11.7507 7.21944L8.34262 17.3726Z" fill="white"/>
<path d="M38.6173 7.13146H43.595V26.4252H38.6173V24.2643C37.4082 26.0651 35.4917 26.9654 32.8677 26.9654C30.7583 26.9654 29.009 26.258 27.6198 24.8431C26.2564 23.4283 25.5747 21.4732 25.5747 18.9778V7.13146H30.5525V18.3604C30.5525 19.6467 30.8998 20.6371 31.5943 21.3317C32.2889 22.0005 33.215 22.3349 34.3726 22.3349C35.6589 22.3349 36.6879 21.9362 37.4596 21.1387C38.2314 20.3413 38.6173 19.145 38.6173 17.5501V7.13146Z" fill="white"/>
<path d="M59.1901 11.9163H54.8297V19.9425C54.8297 20.6114 54.9969 21.1001 55.3314 21.4088C55.6658 21.7175 56.1546 21.8976 56.7977 21.9491C57.4408 21.9748 58.2383 21.9619 59.1901 21.9105V26.4252C55.7687 26.8111 53.3505 26.4895 51.9357 25.4605C50.5465 24.4315 49.8519 22.5922 49.8519 19.9425V11.9163H46.4948V7.13146H49.8519V3.23413L54.8297 1.72921V7.13146H59.1901V11.9163Z" fill="white"/>
<path d="M78.5351 24.0328C76.5543 25.9879 74.1361 26.9654 71.2807 26.9654C68.4252 26.9654 66.007 25.9879 64.0262 24.0328C62.0711 22.052 61.0936 19.6338 61.0936 16.7783C61.0936 13.9229 62.0711 11.5176 64.0262 9.56248C66.007 7.58165 68.4252 6.59124 71.2807 6.59124C74.1361 6.59124 76.5543 7.58165 78.5351 9.56248C80.5159 11.5176 81.5064 13.9229 81.5064 16.7783C81.5064 19.6338 80.5159 22.052 78.5351 24.0328ZM67.5377 20.5985C68.541 21.6018 69.7886 22.1034 71.2807 22.1034C72.7727 22.1034 74.0204 21.6018 75.0237 20.5985C76.0269 19.5952 76.5286 18.3218 76.5286 16.7783C76.5286 15.2348 76.0269 13.9615 75.0237 12.9582C74.0204 11.9549 72.7727 11.4533 71.2807 11.4533C69.7886 11.4533 68.541 11.9549 67.5377 12.9582C66.5601 13.9615 66.0714 15.2348 66.0714 16.7783C66.0714 18.3218 66.5601 19.5952 67.5377 20.5985Z" fill="white"/>
<path d="M89.2513 12.8157C89.2513 13.289 89.559 13.6795 90.1743 13.9872C90.8133 14.2712 91.5825 14.5315 92.4819 14.7682C93.3812 14.9812 94.2806 15.2652 95.1799 15.6202C96.0793 15.9515 96.8366 16.5195 97.4519 17.3242C98.0909 18.1289 98.4104 19.1348 98.4104 20.3418C98.4104 22.1641 97.7241 23.5723 96.3514 24.5663C95.0024 25.5367 93.3102 26.0218 91.2748 26.0218C87.6301 26.0218 85.1451 24.6137 83.8197 21.7973L87.7958 19.5608C88.3165 21.0991 89.4762 21.8683 91.2748 21.8683C92.9079 21.8683 93.7244 21.3594 93.7244 20.3418C93.7244 19.8684 93.4049 19.4898 92.7659 19.2057C92.1505 18.8981 91.3932 18.6259 90.4938 18.3892C89.5945 18.1526 88.6951 17.8567 87.7958 17.5017C86.8965 17.1467 86.1273 16.5905 85.4883 15.8332C84.8729 15.0522 84.5653 14.0818 84.5653 12.9222C84.5653 11.1708 85.2043 9.79812 86.4823 8.8041C87.784 7.78642 89.3933 7.27758 91.3103 7.27758C92.754 7.27758 94.0676 7.60892 95.2509 8.2716C96.4343 8.91061 97.3691 9.83362 98.0554 11.0406L94.1504 13.1707C93.5824 11.9636 92.6357 11.3601 91.3103 11.3601C90.7187 11.3601 90.2217 11.4903 89.8193 11.7506C89.4407 12.011 89.2513 12.366 89.2513 12.8157Z" fill="white"/>
<path d="M121.161 7.27758C123.196 7.27758 124.817 7.94026 126.024 9.26561C127.255 10.591 127.87 12.366 127.87 14.5907V25.5248H123.291V14.9102C123.291 13.8452 123.03 13.0168 122.51 12.4252C121.989 11.8335 121.255 11.5376 120.309 11.5376C119.267 11.5376 118.451 11.8808 117.859 12.5672C117.291 13.2535 117.007 14.2475 117.007 15.5492V25.5248H112.428V14.9102C112.428 13.8452 112.167 13.0168 111.647 12.4252C111.126 11.8335 110.392 11.5376 109.446 11.5376C108.428 11.5376 107.611 11.8808 106.996 12.5672C106.404 13.2535 106.109 14.2475 106.109 15.5492V25.5248H101.529V7.77459H106.109V9.65612C107.174 8.07043 108.818 7.27758 111.043 7.27758C113.22 7.27758 114.83 8.12959 115.871 9.83362C117.055 8.12959 118.818 7.27758 121.161 7.27758Z" fill="white"/>
<path d="M131.76 25.5248V7.77459H136.339V25.5248H131.76Z" fill="white"/>
<path d="M150.684 12.1767H146.673V19.5608C146.673 20.1761 146.826 20.6258 147.134 20.9098C147.442 21.1938 147.891 21.3594 148.483 21.4068C149.075 21.4304 149.808 21.4186 150.684 21.3713V25.5248C147.536 25.8798 145.312 25.584 144.01 24.6373C142.732 23.6906 142.093 21.9985 142.093 19.5608V12.1767H139.004V7.77459H142.093V4.18904L146.673 2.80452V7.77459H150.684V12.1767Z" fill="white"/>
<path d="M163.782 7.27758C165.723 7.27758 167.32 7.92842 168.575 9.23011C169.853 10.5318 170.492 12.3305 170.492 14.6262V25.5248H165.912V15.1942C165.912 14.0108 165.593 13.1115 164.954 12.4962C164.315 11.8571 163.463 11.5376 162.398 11.5376C161.214 11.5376 160.268 11.9045 159.558 12.6382C158.848 13.3718 158.493 14.4724 158.493 15.9397V25.5248H153.913V0.674488H158.493V9.76262C159.605 8.10593 161.368 7.27758 163.782 7.27758Z" fill="white"/>
<path d="M132.044 4.82807C132.612 5.37241 133.275 5.64458 134.032 5.64458C134.813 5.64458 135.476 5.37241 136.02 4.82807C136.588 4.26006 136.872 3.59738 136.872 2.84004C136.872 2.0827 136.588 1.42002 136.02 0.852012C135.476 0.284004 134.813 0 134.032 0C133.275 0 132.612 0.284004 132.044 0.852012C131.5 1.42002 131.227 2.0827 131.227 2.84004C131.227 3.59738 131.5 4.26006 132.044 4.82807Z" fill="#F1C618"/>
</svg>
