<svg width="134" height="22" viewBox="0 0 134 22" fill="none" xmlns="http://www.w3.org/2000/svg">
<path d="M14.2813 20.7627L13.1098 17.2481H5.32761L4.15609 20.7627H0L6.83385 1.23739H11.6036L18.4653 20.7627H14.2813ZM6.55491 13.6499H11.9104L9.23267 5.67242L6.55491 13.6499Z" fill="#3A86FF"/>
<path d="M30.3421 5.60329H34.2533V20.7627H30.3421V19.0648C29.3921 20.4797 27.8863 21.1871 25.8246 21.1871C24.1672 21.1871 22.7928 20.6313 21.7013 19.5196C20.63 18.4079 20.0944 16.8718 20.0944 14.9112V5.60329H24.0055V14.4261C24.0055 15.4367 24.2784 16.2149 24.8241 16.7606C25.3699 17.2861 26.0975 17.5489 27.0071 17.5489C28.0177 17.5489 28.8262 17.2356 29.4326 16.609C30.0389 15.9824 30.3421 15.0425 30.3421 13.7894V5.60329Z" fill="#3A86FF"/>
<path d="M46.5065 9.36282H43.0805V15.6691C43.0805 16.1946 43.2119 16.5787 43.4747 16.8212C43.7374 17.0638 44.1215 17.2053 44.6268 17.2457C45.1321 17.2659 45.7587 17.2558 46.5065 17.2154V20.7627C43.8183 21.0659 41.9183 20.8132 40.8066 20.0047C39.7151 19.1962 39.1694 17.751 39.1694 15.6691V9.36282H36.5317V5.60329H39.1694V2.5411L43.0805 1.35867V5.60329H46.5065V9.36282Z" fill="#3A86FF"/>
<path d="M61.7062 18.8829C60.1498 20.4191 58.2498 21.1871 56.0062 21.1871C53.7627 21.1871 51.8627 20.4191 50.3063 18.8829C48.7702 17.3265 48.0021 15.4266 48.0021 13.183C48.0021 10.9394 48.7702 9.04953 50.3063 7.51338C51.8627 5.95701 53.7627 5.17883 56.0062 5.17883C58.2498 5.17883 60.1498 5.95701 61.7062 7.51338C63.2625 9.04953 64.0407 10.9394 64.0407 13.183C64.0407 15.4266 63.2625 17.3265 61.7062 18.8829ZM53.0653 16.1845C53.8536 16.9728 54.8339 17.367 56.0062 17.367C57.1786 17.367 58.1589 16.9728 58.9472 16.1845C59.7354 15.3962 60.1296 14.3957 60.1296 13.183C60.1296 11.9702 59.7354 10.9697 58.9472 10.1814C58.1589 9.39314 57.1786 8.99899 56.0062 8.99899C54.8339 8.99899 53.8536 9.39314 53.0653 10.1814C52.2972 10.9697 51.9132 11.9702 51.9132 13.183C51.9132 14.3957 52.2972 15.3962 53.0653 16.1845Z" fill="#3A86FF"/>
<path d="M70.126 10.0694C70.126 10.4414 70.3678 10.7482 70.8513 10.9899C71.3533 11.2131 71.9577 11.4176 72.6643 11.6036C73.371 11.7709 74.0776 11.9941 74.7842 12.273C75.4908 12.5334 76.0859 12.9796 76.5694 13.6119C77.0715 14.2441 77.3225 15.0344 77.3225 15.9828C77.3225 17.4147 76.7832 18.5211 75.7047 19.3021C74.6447 20.0645 73.3152 20.4457 71.716 20.4457C68.8522 20.4457 66.8997 19.3393 65.8584 17.1264L68.9824 15.3692C69.3915 16.5779 70.3027 17.1822 71.716 17.1822C72.999 17.1822 73.6406 16.7824 73.6406 15.9828C73.6406 15.6109 73.3896 15.3134 72.8875 15.0902C72.404 14.8485 71.8089 14.6346 71.1023 14.4487C70.3957 14.2627 69.689 14.0303 68.9824 13.7514C68.2758 13.4724 67.6714 13.0354 67.1694 12.4404C66.6859 11.8267 66.4441 11.0643 66.4441 10.1531C66.4441 8.77706 66.9462 7.69852 67.9504 6.91751C68.9731 6.1179 70.2376 5.7181 71.7438 5.7181C72.8782 5.7181 73.9102 5.97844 74.84 6.49911C75.7698 7.00119 76.5043 7.72642 77.0436 8.67479L73.9753 10.3484C73.529 9.40001 72.7852 8.92583 71.7438 8.92583C71.279 8.92583 70.8885 9.0281 70.5723 9.23265C70.2748 9.4372 70.126 9.71613 70.126 10.0694Z" fill="#1D2949"/>
<path d="M95.1977 5.7181C96.7969 5.7181 98.0707 6.23878 99.0191 7.28012C99.9861 8.32147 100.47 9.71613 100.47 11.4641V20.0552H96.8713V11.7151C96.8713 10.8784 96.6668 10.2275 96.2577 9.76262C95.8486 9.29773 95.2721 9.06529 94.5283 9.06529C93.7101 9.06529 93.0685 9.33493 92.6036 9.8742C92.1573 10.4135 91.9342 11.1945 91.9342 12.2172V20.0552H88.336V11.7151C88.336 10.8784 88.1314 10.2275 87.7223 9.76262C87.3132 9.29773 86.7368 9.06529 85.993 9.06529C85.1933 9.06529 84.5518 9.33493 84.0683 9.8742C83.6034 10.4135 83.371 11.1945 83.371 12.2172V20.0552H79.7727V6.10861H83.371V7.58695C84.2078 6.34105 85.5002 5.7181 87.2481 5.7181C88.9589 5.7181 90.2234 6.38754 91.0416 7.72641C91.9714 6.38754 93.3568 5.7181 95.1977 5.7181Z" fill="#1D2949"/>
<path d="M103.526 20.0552V6.10861H107.124V20.0552H103.526Z" fill="#1D2949"/>
<path d="M118.395 9.56737H115.243V15.3692C115.243 15.8526 115.364 16.206 115.605 16.4291C115.847 16.6523 116.2 16.7824 116.665 16.8196C117.13 16.8382 117.707 16.8289 118.395 16.7917V20.0552C115.921 20.3342 114.173 20.1017 113.151 19.3579C112.147 18.6141 111.644 17.2845 111.644 15.3692V9.56737H109.218V6.10861H111.644V3.29139L115.243 2.20355V6.10861H118.395V9.56737Z" fill="#1D2949"/>
<path d="M128.686 5.7181C130.211 5.7181 131.466 6.22948 132.452 7.25223C133.456 8.27498 133.958 9.68824 133.958 11.492V20.0552H130.36V11.9383C130.36 11.0085 130.109 10.3019 129.606 9.81841C129.104 9.31633 128.435 9.06529 127.598 9.06529C126.668 9.06529 125.925 9.35352 125.367 9.92998C124.809 10.5064 124.53 11.3711 124.53 12.5241V20.0552H120.932V0.529955H124.53V7.67063C125.404 6.36894 126.789 5.7181 128.686 5.7181Z" fill="#1D2949"/>
<path d="M103.749 3.79348C104.195 4.22118 104.716 4.43503 105.311 4.43503C105.924 4.43503 106.445 4.22118 106.873 3.79348C107.319 3.34719 107.542 2.82652 107.542 2.23146C107.542 1.6364 107.319 1.11573 106.873 0.669438C106.445 0.223146 105.924 0 105.311 0C104.716 0 104.195 0.223146 103.749 0.669438C103.321 1.11573 103.107 1.6364 103.107 2.23146C103.107 2.82652 103.321 3.34719 103.749 3.79348Z" fill="#F1C618"/>
</svg>
